Coordinates
version=1
nRows=32
nColumns=22
inDegrees=yes

Units are S.I. units (second, meters, Newtons, ...)
If the header above contains a line with 'inDegrees', this indicates whether rotational values are in degrees (yes) or radians (no).

endheader
time	pelvis_tilt	pelvis_list	pelvis_rotation	pelvis_tx	pelvis_ty	pelvis_tz	hip_flexion_r	hip_adduction_r	hip_rotation_r	knee_angle_r	ankle_angle_r	subtalar_angle_r	hip_flexion_l	hip_adduction_l	hip_rotation_l	knee_angle_l	ankle_angle_l	subtalar_angle_l	lumbar_extension	lumbar_bending	lumbar_rotation
      1.92000000	      5.44416145	      3.12469463	    171.63926162	     -0.19657643	      0.94017844	      0.93565090	     30.40290755	      4.69720380	    -24.91684232	    -35.87838339	      9.15101917	     -5.38850119	      9.95021877	    -13.01367603	      5.37228019	    -60.28364516	      1.46828962	      4.15147614	     -1.22130704	     12.16397393	     -9.46227796
      1.93000000	      5.49722657	      3.15475661	    170.62458039	     -0.20490180	      0.94163927	      0.92853634	     29.49592865	      5.62147704	    -24.29310364	    -35.28518353	      9.48294059	     -5.36294098	     11.16063894	    -13.11796030	      5.80881693	    -61.11012667	      1.92049082	      3.22251089	     -1.12174896	     12.18288179	     -9.03651759
      1.94000000	      5.55234640	      3.15489048	    169.58304440	     -0.21302966	      0.94315367	      0.92141752	     28.55837241	      6.52194857	    -23.59366754	    -34.63498811	      9.76609602	     -5.32320079	     12.32112578	    -13.14837083	      6.27536103	    -61.67319402	      2.38887439	      2.40952594	     -1.02805910	     12.16944275	     -8.59778513
      1.95000000	      5.60949127	      3.13436307	    168.52540306	     -0.22097893	      0.94470211	      0.91430288	     27.58977691	      7.39687753	    -22.83727108	    -33.93278607	     10.01405771	     -5.27574439	     13.43256586	    -13.11754971	      6.77588005	    -61.98381225	      2.89565163	      1.75173026	     -0.93761559	     12.13354189	     -8.14751906
      1.96000000	      5.66381884	      3.09969580	    167.46388892	     -0.22881215	      0.94628516	      0.90718185	     26.57335888	      8.24048197	    -22.06137702	    -33.16909080	     10.24666267	     -5.20855332	     14.47905615	    -13.03950855	      7.30498625	    -62.03520392	      3.45255524	      1.11495206	     -0.84595025	     12.07954560	     -7.69445853
      1.97000000	      5.71683666	      3.06234068	    166.40219506	     -0.23647189	      0.94786917	      0.90007390	     25.52668581	      9.06661704	    -21.23547482	    -32.36287168	     10.43052349	     -5.14313293	     15.48407469	    -12.93316082	      7.86041335	    -61.86917708	      4.06464759	      0.58092950	     -0.76372058	     12.02327762	     -7.26683797
      1.98000000	      5.82046814	      3.01210675	    165.34445181	     -0.24394723	      0.94934670	      0.89298785	     24.51895959	      9.86532036	    -20.39546407	    -31.53714706	     10.58040414	     -5.11928792	     16.51337879	    -12.80909183	      8.43952919	    -61.51048862	      4.77144740	      0.24923019	     -0.62785916	     11.96724075	     -6.85029976
      1.99000000	      5.83123761	      2.99099249	    164.29454110	     -0.25136501	      0.95096595	      0.88586886	     23.34529099	     10.65904174	    -19.51639817	    -30.62257192	     10.66331578	     -5.04618971	     17.37242312	    -12.69230850	      9.00197381	    -60.92001650	      5.44155735	     -0.36950314	     -0.59970285	     11.91552550	     -6.48985055
      2.00000000	      5.90103404	      2.95828461	    163.25183296	     -0.25858368	      0.95242067	      0.87880052	     22.23363172	     11.42437826	    -18.61804326	    -29.71173843	     10.72282758	     -5.02379723	     18.27689071	    -12.57390597	      9.57316308	    -60.17932597	      6.18281231	     -0.84420925	     -0.51439230	     11.87178696	     -6.13847618
      2.01000000	      5.95778261	      2.92323641	    162.21300684	     -0.26568621	      0.95381664	      0.87175555	     21.08524205	     12.15689723	    -17.70039444	    -28.77767267	     10.76054887	     -5.03096653	     19.13028687	    -12.45680576	     10.11486943	    -59.27877635	      6.94882206	     -1.35419633	     -0.44681794	     11.82449732	     -5.80799841
      2.02000000	      6.01031023	      2.87688483	    161.16872728	     -0.27268746	      0.95512292	      0.86472574	     19.92544482	     12.84949899	    -16.74658261	    -27.85036865	     10.78874863	     -5.07721548	     19.93245180	    -12.33276320	     10.62526870	    -58.22005982	      7.72822892	     -1.91017712	     -0.38134824	     11.76795686	     -5.48620803
      2.03000000	      6.09770315	      2.80772306	    160.10796595	     -0.27952913	      0.95628314	      0.85774664	     18.79992899	     13.50937591	    -15.71882573	    -26.92338010	     10.76144606	     -5.13313341	     20.75099333	    -12.20083291	     11.10064032	    -57.04694683	      8.45568295	     -2.33885564	     -0.28311881	     11.70936211	     -5.15726951
      2.04000000	      6.13971878	      2.70123265	    159.03288483	     -0.28633811	      0.95738292	      0.85080699	     17.62100255	     14.08251630	    -14.65528856	    -26.00117989	     10.75745987	     -5.23035519	     21.47499464	    -12.02321012	     11.50730208	    -55.73102052	      9.15079261	     -2.82893474	     -0.21749143	     11.60522156	     -4.84897211
      2.05000000	      6.19217474	      2.55964387	    157.93639143	     -0.29302399	      0.95831666	      0.84395777	     16.47426451	     14.58922595	    -13.52491554	    -25.11894258	     10.76383009	     -5.34293882	     22.18966657	    -11.80116067	     11.89297725	    -54.32623709	      9.79207821	     -3.22518260	     -0.13778712	     11.48320772	     -4.51896628
      2.06000000	      6.23393994	      2.38109172	    156.81773172	     -0.29961503	      0.95910918	      0.83719683	     15.33675773	     15.01892106	    -12.32884027	    -24.27430866	     10.78127086	     -5.46837992	     22.87114380	    -11.52011436	     12.26518637	    -52.84011607	     10.35070113	     -3.50884248	     -0.06223880	     11.33434623	     -4.17296358
      2.07000000	      6.32951269	      2.16182638	    155.67705705	     -0.30608834	      0.95965458	      0.83053027	     14.28144624	     15.39130186	    -11.07902084	    -23.47074567	     10.82781000	     -5.57378654	     23.60967902	    -11.21075833	     12.62329910	    -51.30900499	     10.82291408	     -3.63184227	      0.07979029	     11.18683987	     -3.82257642
      2.08000000	      6.28155046	      1.92303709	    154.53197663	     -0.31258422	      0.96025023	      0.82395138	     13.08806568	     15.63725747	     -9.79021918	    -22.68949065	     10.87956416	     -5.75921911	     24.14650834	    -10.78743270	     13.00488048	    -49.67599790	     11.19374797	     -3.70085388	      0.08220030	     10.96803263	     -3.47968348
      2.09000000	      6.28056126	      1.66039222	    153.37898397	     -0.31898063	      0.96060082	      0.81747263	     11.97256639	     15.83459204	     -8.47153977	    -21.94909920	     10.95554079	     -5.94124454	     24.73927329	    -10.34545442	     13.40519815	    -48.02583923	     11.46432376	     -3.61609861	      0.13994547	     10.76507755	     -3.13867955
      2.10000000	      6.26996266	      1.38993133	    152.23025934	     -0.32531420	      0.96078908	      0.81106992	     10.87021351	     15.97383171	     -7.14021142	    -21.24276185	     11.05010092	     -6.12700226	     25.31492445	     -9.87449118	     13.84291649	    -46.35251849	     11.62990514	     -3.40510415	      0.19165099	     10.56074412	     -2.80766600
      2.11000000	      6.23576694	      1.12823828	    151.10525952	     -0.33163536	      0.96084435	      0.80472363	      9.75002705	     16.06014371	     -5.83950476	    -20.54676431	     11.16501090	     -6.33275158	     25.85622286	     -9.39207091	     14.30670614	    -44.65862030	     11.68072313	     -3.06665524	      0.22246528	     10.36229323	     -2.50866590
      2.12000000	      6.19320918	      0.88379078	    150.01109689	     -0.33792233	      0.96074930	      0.79843396	      8.63225601	     16.10994923	     -4.57789383	    -19.86830207	     11.29626367	     -6.54095839	     26.38425667	     -8.91772287	     14.79314424	    -42.95880774	     11.60485224	     -2.63399215	      0.24094878	     10.18376285	     -2.24040534
      2.13000000	      6.14930888	      0.66277768	    148.95030642	     -0.34416555	      0.96049570	      0.79218490	      7.52962697	     16.13520813	     -3.36507568	    -19.22029951	     11.44484661	     -6.72958950	     26.90635094	     -8.46798383	     15.28739507	    -41.26090780	     11.39470816	     -2.16975711	      0.24860097	     10.03155800	     -2.00323771
      2.14000000	      6.10366273	      0.47211102	    147.92848210	     -0.35037631	      0.96009603	      0.78595629	      6.43464139	     16.14439187	     -2.21126575	    -18.59658471	     11.60976167	     -6.89710452	     27.41857738	     -8.05553929	     15.77158065	    -39.56595795	     11.03731768	     -1.70209509	      0.24267149	      9.90813383	     -1.80359211
      2.15000000	      6.08183545	      0.30023205	    146.93252212	     -0.35653106	      0.95952815	      0.77973743	      5.38875167	     16.14476317	     -1.11354274	    -18.01775872	     11.77398647	     -7.01186167	     27.94951715	     -7.69479928	     16.21313140	    -37.87574959	     10.49724696	     -1.32353059	      0.24797401	      9.81863167	     -1.59955674
      2.16000000	      6.04311074	      0.16789049	    145.98060587	     -0.36270821	      0.95884886	      0.77349817	      4.32574262	     16.13581707	     -0.07141076	    -17.46224283	     11.97180850	     -7.11512981	     28.43723091	     -7.37862514	     16.60709359	    -36.17537800	      9.86933642	     -0.95658374	      0.22174907	      9.75585444	     -1.45016679
      2.17000000	      6.02111582	      0.05819342	    145.05772331	     -0.36886374	      0.95801879	      0.76722243	      3.30295191	     16.12731396	      0.92332581	    -16.96001308	     12.18725828	     -7.18821222	     28.92183596	     -7.11682996	     16.93610395	    -34.47173819	      9.12846624	     -0.65368323	      0.20076187	      9.72011455	     -1.31131760
      2.18000000	      6.00991015	     -0.03439881	    144.14807075	     -0.37500991	      0.95705913	      0.76088301	      2.31521614	     16.11376874	      1.88807862	    -16.51645284	     12.41361876	     -7.22805630	     29.38918433	     -6.91299542	     17.16429456	    -32.75372163	      8.29790254	     -0.41489124	      0.17829677	      9.70587518	     -1.17410721
      2.19000000	      6.00663322	     -0.10941974	    143.25020234	     -0.38116105	      0.95598097	      0.75446298	      1.36664480	     16.09740062	      2.82135898	    -16.14737067	     12.65473425	     -7.23622660	     29.83109821	     -6.76449186	     17.28755605	    -31.02215671	      7.42940991	     -0.22906756	      0.15490965	      9.70904755	     -1.02567185
      2.20000000	      6.01739033	     -0.17752591	    142.35756970	     -0.38731427	      0.95478952	      0.74795593	      0.47356036	     16.07575631	      3.72832738	    -15.86219920	     12.89776409	     -7.21594840	     30.25160190	     -6.66557695	     17.30522209	    -29.27448428	      6.57120991	     -0.07576814	      0.14032444	      9.72570895	     -0.86381486
      2.21000000	      6.02106993	     -0.22560269	    141.47678120	     -0.39350125	      0.95353151	      0.74135173	     -0.40103946	     16.04609663	      4.59859453	    -15.64488961	     13.15179131	     -7.14922151	     30.61617443	     -6.60621480	     17.23621314	    -27.50628521	      5.79592016	      0.07030573	      0.11016073	      9.75184726	     -0.69983748
      2.22000000	      6.07610965	     -0.30559988	    140.57705563	     -0.39964404	      0.95212099	      0.73464751	     -1.14188315	     16.01003715	      5.46131088	    -15.55406347	     13.37326896	     -7.09936532	     31.00493557	     -6.59443402	     17.06642251	    -25.72654507	      5.17999277	      0.23967804	      0.14281752	      9.78396031	     -0.50689359
      2.23000000	      6.11987500	     -0.37290156	    139.68114921	     -0.40583079	      0.95068076	      0.72782304	     -1.87471852	     15.96040300	      6.30700715	    -15.51625844	     13.59535930	     -7.01963421	     31.31994083	     -6.60767589	     16.85955109	    -23.92572609	      4.78356469	      0.46154204	      0.16048789	      9.81837278	     -0.30451585
